<?xml version="1.0" encoding="utf-8"?>
<!-- Generator: Adobe Illustrator 22.0.0, SVG Export Plug-In . SVG Version: 6.00 Build 0)  -->
<svg version="1.1" id="Layer_1" xmlns="http://www.w3.org/2000/svg" xmlns:xlink="http://www.w3.org/1999/xlink" x="0px" y="0px"
	 viewBox="0 0 1666.321 426.283" enable-background="new 0 0 1666.321 426.283" xml:space="preserve">
<g>
	<path fill="#FFFFFF" d="M584.526,269.942c0.531,0,1.266,0.334,2.2,1l4.2,4.4c-5.869,5.869-12.2,11.234-19,16.1
		c-6.8,4.869-14.269,9.034-22.4,12.5c-8.134,3.469-17.034,6.169-26.7,8.1c-9.669,1.932-20.3,2.9-31.9,2.9
		c-19.068,0-36.634-3.366-52.7-10.101c-16.069-6.73-29.9-16.331-41.5-28.8c-11.6-12.465-20.669-27.565-27.2-45.3
		c-6.534-17.731-9.8-37.6-9.8-59.6c0-21.465,3.266-41.031,9.8-58.7c6.531-17.666,15.766-32.8,27.7-45.4
		c11.931-12.6,26.2-22.365,42.8-29.3c16.6-6.931,34.9-10.4,54.9-10.4c18.8,0,35.466,2.869,50,8.6c14.531,5.734,28.066,14,40.6,24.8
		l-3,4.4c-0.534,0.935-1.6,1.4-3.2,1.4c-0.8,0-2.169-0.731-4.1-2.2c-1.935-1.466-4.469-3.3-7.6-5.5c-3.134-2.2-6.935-4.6-11.4-7.2
		c-4.469-2.6-9.7-5-15.7-7.2c-6-2.2-12.8-4.031-20.4-5.5c-7.6-1.466-16-2.2-25.2-2.2c-18.134,0-34.8,3.134-50,9.4
		c-15.2,6.269-28.269,15.2-39.2,26.8c-10.935,11.6-19.435,25.7-25.5,42.3c-6.069,16.6-9.1,35.234-9.1,55.9
		c0,21.069,3.031,39.9,9.1,56.5c6.065,16.6,14.5,30.669,25.3,42.2c10.8,11.534,23.531,20.369,38.2,26.5
		c14.666,6.134,30.6,9.2,47.8,9.2c10.8,0,20.466-0.731,29-2.2c8.531-1.465,16.366-3.665,23.5-6.6
		c7.131-2.931,13.731-6.531,19.8-10.8c6.065-4.266,12.1-9.131,18.1-14.6C582.857,270.411,583.726,269.942,584.526,269.942z"/>
	<path fill="#FFFFFF" d="M649.124,167.342c2.931-8.931,6.4-16.866,10.4-23.8c4-6.931,8.631-12.8,13.9-17.6
		c5.266-4.8,11.231-8.432,17.9-10.9c6.666-2.465,14.2-3.7,22.6-3.7c3.865,0,7.831,0.3,11.9,0.9c4.065,0.6,7.7,1.834,10.9,3.7
		l-1.2,6.2c-0.534,1.469-1.469,2.2-2.8,2.2c-1.469,0-3.7-0.5-6.7-1.5s-7.434-1.5-13.3-1.5c-8.269,0-15.634,1.3-22.1,3.9
		c-6.469,2.6-12.2,6.435-17.2,11.5c-5,5.069-9.435,11.4-13.3,19c-3.869,7.6-7.4,16.469-10.6,26.6v129.4h-10.6v-197.2h4.8
		c2.666,0,4.065,1.469,4.2,4.4L649.124,167.342z"/>
	<path fill="#FFFFFF" d="M931.319,114.542l-115,263.4c-0.668,1.331-1.469,2.531-2.399,3.6c-0.935,1.065-2.269,1.601-4,1.601h-7
		l34-76.2l-84.4-192.4h8c1.466,0,2.632,0.4,3.5,1.2c0.866,0.8,1.432,1.6,1.7,2.4l73.6,168.8c1.332,2.934,2.332,6,3,9.2
		c0.932-2.8,2.066-5.866,3.4-9.2l73.2-168.8c0.531-1.065,1.231-1.931,2.1-2.6c0.866-0.666,1.831-1,2.9-1H931.319z"/>
	<path fill="#FFFFFF" d="M985.917,152.942c8.8-12.932,19.3-23.1,31.5-30.5c12.199-7.4,25.699-11.1,40.5-11.1
		c24.931,0,44.165,8.269,57.699,24.8c13.531,16.535,20.301,41.8,20.301,75.8c0,14.4-1.835,27.8-5.5,40.2
		c-3.669,12.4-9.135,23.2-16.4,32.4c-7.269,9.2-16.269,16.435-27,21.7c-10.734,5.269-23.169,7.9-37.3,7.9
		c-27.734,0-48.869-10.866-63.4-32.601v101.601h-10.6V114.542h5c2.531,0,3.865,1.334,4,4L985.917,152.942z M986.316,270.742
		c8.132,12.935,17.2,22.034,27.2,27.3c10,5.269,21.531,7.9,34.6,7.9c12.932,0,24.2-2.366,33.801-7.101c9.6-4.731,17.6-11.3,24-19.7
		c6.399-8.4,11.199-18.331,14.399-29.8c3.2-11.466,4.8-23.931,4.8-37.4c0-31.332-5.934-54.531-17.8-69.6
		c-11.868-15.066-29.068-22.6-51.6-22.6c-13.869,0-26.7,3.8-38.5,11.4c-11.8,7.6-22.101,18.134-30.9,31.6V270.742z"/>
	<path fill="#FFFFFF" d="M1242.516,314.942c-12.269,0-21.868-3.366-28.8-10.101c-6.935-6.73-10.399-17.565-10.399-32.5v-142.2
		h-30.801c-2.534,0-3.8-1-3.8-3v-3.6l34.601-1.4l3-76c0.131-0.8,0.465-1.565,1-2.3c0.531-0.731,1.266-1.1,2.199-1.1h4.4v79.4h65.2v8
		h-65.2v141.8c0,6.134,0.8,11.369,2.4,15.7c1.6,4.334,3.73,7.9,6.399,10.7c2.666,2.801,5.831,4.835,9.5,6.101
		c3.666,1.269,7.632,1.899,11.9,1.899c5.2,0,9.766-0.8,13.7-2.399c3.931-1.601,7.3-3.331,10.1-5.2c2.8-1.865,5.065-3.6,6.8-5.2
		c1.731-1.6,3-2.4,3.8-2.4c0.666,0,1.4,0.4,2.2,1.2l2.601,3.8c-2.27,2.8-4.9,5.334-7.9,7.6c-3,2.269-6.3,4.234-9.9,5.9
		c-3.6,1.668-7.334,2.965-11.199,3.899C1250.448,314.473,1246.516,314.942,1242.516,314.942z"/>
	<path fill="#FFFFFF" d="M1471.722,287.542c-2.669,3.334-6.4,6.6-11.2,9.8c-4.8,3.2-10.3,6.035-16.5,8.5
		c-6.2,2.469-12.935,4.469-20.2,6c-7.269,1.531-14.7,2.301-22.3,2.301c-13.469,0-25.635-2.369-36.5-7.101
		c-10.869-4.731-20.135-11.565-27.8-20.5c-7.669-8.931-13.569-19.9-17.7-32.9c-4.135-13-6.2-27.831-6.2-44.5
		c0-14.4,1.966-27.565,5.9-39.5c3.931-11.931,9.631-22.231,17.1-30.9c7.466-8.666,16.6-15.4,27.4-20.2c10.8-4.8,23.065-7.2,36.8-7.2
		c10.665,0,20.631,1.869,29.899,5.6c9.266,3.734,17.366,9.234,24.301,16.5c6.931,7.269,12.365,16.234,16.3,26.9
		c3.931,10.668,5.899,22.869,5.899,36.6c0,2.8-1.199,4.2-3.6,4.2h-149.4c-0.134,1.334-0.199,2.634-0.199,3.9c0,1.269,0,2.635,0,4.1
		c0,15.734,1.865,29.6,5.6,41.6c3.731,12,9,22.069,15.8,30.2c6.8,8.134,15.031,14.3,24.7,18.5c9.666,4.2,20.432,6.3,32.3,6.3
		c10.531,0,19.666-1.166,27.4-3.5c7.731-2.331,14.2-4.9,19.399-7.7c5.2-2.8,9.231-5.365,12.101-7.7c2.865-2.332,4.7-3.5,5.5-3.5
		c1.065,0,1.931,0.4,2.6,1.2L1471.722,287.542z M1467.321,194.142c0-11.866-1.7-22.431-5.1-31.7c-3.4-9.266-8.069-17.1-14-23.5
		c-5.935-6.4-12.969-11.266-21.101-14.6c-8.134-3.332-16.935-5-26.399-5c-11.2,0-21.234,1.769-30.101,5.3
		c-8.868,3.535-16.5,8.569-22.899,15.1c-6.4,6.534-11.569,14.4-15.5,23.6c-3.935,9.2-6.5,19.469-7.7,30.8H1467.321z"/>
	<path fill="#FFFFFF" d="M1666.321,311.742h-10c-1.334,0-2.334-0.432-3-1.3c-0.669-0.866-1.269-1.632-1.8-2.3l-65.4-92.4
		c-0.399,1.734-1.134,3.269-2.199,4.6l-63.2,87.8c-0.669,0.8-1.369,1.6-2.101,2.399c-0.734,0.8-1.699,1.2-2.899,1.2h-9.4l72.8-100.6
		l-70-96.6h10c1.332,0,2.301,0.369,2.9,1.1c0.6,0.734,1.166,1.435,1.7,2.1l63,88.6c0.266-0.8,0.565-1.6,0.899-2.4
		c0.332-0.8,0.832-1.6,1.5-2.4l60.2-83.6c0.531-0.8,1.166-1.566,1.9-2.3c0.731-0.731,1.631-1.1,2.7-1.1h9.6l-70,95.8
		L1666.321,311.742z"/>
</g>
<g>
	<linearGradient id="SVGID_1_" gradientUnits="userSpaceOnUse" x1="359.726" y1="411.9137" x2="1666.3212" y2="411.9137">
		<stop  offset="0" style="stop-color:#009CE9"/>
		<stop  offset="1" style="stop-color:#4C5EFF"/>
	</linearGradient>
	<line fill="url(#SVGID_1_)" x1="359.726" y1="411.914" x2="1666.321" y2="411.914"/>
	<linearGradient id="SVGID_2_" gradientUnits="userSpaceOnUse" x1="359.726" y1="411.9142" x2="1666.3212" y2="411.9142">
		<stop  offset="0" style="stop-color:#009CE9"/>
		<stop  offset="1" style="stop-color:#4C5EFF"/>
	</linearGradient>
	<rect x="359.726" y="408.52" fill="url(#SVGID_2_)" width="1306.595" height="6.788"/>
</g>
<g>
	<g>
		<g>
			<defs>
				<rect id="SVGID_3_" width="530.925" height="426.283"/>
			</defs>
			<clipPath id="SVGID_4_">
				<use xlink:href="#SVGID_3_"  overflow="visible"/>
			</clipPath>
			<polygon clip-path="url(#SVGID_4_)" fill="#2EDFF6" points="239.187,107.926 247.619,66.611 310.857,86.848 			"/>
			<polygon clip-path="url(#SVGID_4_)" fill="#038CCF" points="193.655,80.101 239.188,107.926 247.619,66.611 256.051,0 			"/>
			<polygon clip-path="url(#SVGID_4_)" fill="#3AE6F8" points="134.634,80.944 193.655,80.101 256.051,0 			"/>
			<polygon clip-path="url(#SVGID_4_)" fill="#23CEF0" points="134.634,80.944 0,265.454 91.632,288.366 193.656,80.102 			"/>
			<polygon clip-path="url(#SVGID_4_)" fill="#1E85D0" points="199.558,179.596 193.656,80.102 91.632,288.366 			"/>
			<polygon clip-path="url(#SVGID_4_)" fill="#1194DA" points="264.483,279.933 199.559,179.596 91.633,288.365 			"/>
			<polygon clip-path="url(#SVGID_4_)" fill="#38A6E5" points="64.358,377.151 91.633,288.366 264.483,279.933 			"/>
			<polygon clip-path="url(#SVGID_4_)" fill="#214AAA" points="64.358,377.151 210.412,426.284 264.483,279.933 			"/>
			<polygon clip-path="url(#SVGID_4_)" fill="#263995" points="210.412,426.283 366.506,363.408 264.482,279.934 			"/>
			<polygon clip-path="url(#SVGID_4_)" fill="#08A3DD" points="239.187,107.926 259.424,177.067 199.558,179.596 193.655,80.101 			
				"/>
			<polygon clip-path="url(#SVGID_4_)" fill="#0E60B7" points="264.483,279.933 259.423,177.067 199.559,179.596 			"/>
			<polygon clip-path="url(#SVGID_4_)" fill="#1164BC" points="337.839,203.204 259.423,177.066 264.483,279.933 338.682,266.442 
							"/>
			<polygon clip-path="url(#SVGID_4_)" fill="#0EA5E4" points="497.126,264.045 474.433,279.09 338.682,266.442 337.839,203.204 
				380.84,200.675 			"/>
			<polygon clip-path="url(#SVGID_4_)" fill="#0858AB" points="474.432,279.091 489.609,345.7 530.924,282.462 497.125,264.044 			
				"/>
			<polygon clip-path="url(#SVGID_4_)" fill="#0B6CCA" points="264.483,279.933 489.609,345.7 474.433,279.091 338.683,266.442 			
				"/>
			<polygon clip-path="url(#SVGID_4_)" fill="#11469D" points="449.137,365.093 264.483,279.934 489.609,345.701 			"/>
			<polygon clip-path="url(#SVGID_4_)" fill="#17387B" points="366.507,363.408 449.137,365.093 264.483,279.934 			"/>
			<polygon clip-path="url(#SVGID_4_)" fill="#3CDAF4" points="239.187,107.926 330.25,161.046 320.975,182.125 259.424,177.067 			
				"/>
			<polygon clip-path="url(#SVGID_4_)" fill="#1BCFF3" points="310.857,86.847 239.187,107.926 330.25,161.047 			"/>
			<polygon clip-path="url(#SVGID_4_)" fill="#28D6F3" points="365.663,157.673 330.251,161.046 310.857,86.847 			"/>
			<polygon clip-path="url(#SVGID_4_)" fill="#0EB2E6" points="380.84,200.675 330.25,161.046 365.663,157.673 			"/>
			<polygon clip-path="url(#SVGID_4_)" fill="#FFFFFF" points="337.839,203.204 259.423,177.066 320.975,182.126 			"/>
			<polygon clip-path="url(#SVGID_4_)" fill="#39CBF0" points="330.25,161.046 320.975,182.125 337.839,203.204 380.839,200.675 			
				"/>
			<polygon clip-path="url(#SVGID_4_)" fill="#1DB6F2" points="64.358,377.151 91.632,288.366 0,265.454 			"/>
		</g>
	</g>
</g>
<g>
</g>
<g>
</g>
<g>
</g>
<g>
</g>
<g>
</g>
<g>
</g>
<g>
</g>
<g>
</g>
<g>
</g>
<g>
</g>
<g>
</g>
<g>
</g>
<g>
</g>
<g>
</g>
<g>
</g>
</svg>
